<?xml version="1.0" standalone="no"?>
<!DOCTYPE svg PUBLIC "-//W3C//DTD SVG 20010904//EN"
 "http://www.w3.org/TR/2001/REC-SVG-20010904/DTD/svg10.dtd">
<svg version="1.0" xmlns="http://www.w3.org/2000/svg"
 width="260.000000pt" height="260.000000pt" viewBox="0 0 260.000000 260.000000"
 preserveAspectRatio="xMidYMid meet">
<metadata>
Created by potrace 1.11, written by Peter Selinger 2001-2013
</metadata>
<g transform="translate(0.000000,260.000000) scale(0.100000,-0.100000)"
fill="#000000" stroke="none">
<path d="M1050 2484 c-91 -62 -250 -170 -354 -241 -511 -345 -541 -371 -616
-514 -58 -111 -80 -210 -76 -334 3 -111 14 -160 58 -254 80 -175 219 -300 398
-359 126 -41 265 -46 387 -12 252 69 403 242 403 460 0 102 -53 259 -83 247
-7 -2 -93 -59 -192 -127 -225 -153 -227 -153 -300 -153 -199 0 -297 224 -161
368 23 24 139 109 260 190 396 266 415 281 466 370 64 114 76 264 31 380 -43
107 -33 108 -221 -21z"/>
<path d="M1845 1848 c-297 -39 -494 -231 -495 -483 0 -102 54 -253 85 -241 8
3 95 60 192 127 98 68 201 131 228 140 172 62 334 -96 284 -275 -16 -57 -82
-116 -284 -251 -99 -66 -182 -122 -185 -125 -3 -3 -51 -36 -108 -74 -118 -79
-185 -148 -220 -226 -29 -65 -32 -77 -39 -154 -8 -90 23 -216 69 -273 9 -12
24 -2 453 290 77 53 225 153 329 224 205 139 292 216 347 309 73 123 100 227
95 374 -4 109 -23 185 -67 271 -128 254 -407 403 -684 367z"/>
</g>
</svg>
