<svg width="512" height="512" viewBox="0 0 512 512" fill="none" xmlns="http://www.w3.org/2000/svg">
<path d="m253.3 136.7l-107.8 75.4c-14.9 10.4-18.5 30.9-8.1 45.9 10.4 14.9 30.9 18.5 45.8 8.1l107.8-75.5c44.7-31.2 106.3-20.4 137.4 24.3 31.3 44.6 20.4 106.2-24.2 137.4l-33.9 23.6c28.1 47.7 91.6 27.7 120.4-23.5 30.2-53.5 29.1-121.9-8.4-175.4-52-74.2-154.8-92.3-229-40.3z" fill="#005AE1"/>
<path d="m258.7 373.8l107.8-75.4c14.9-10.4 18.5-30.9 8.1-45.8-10.4-15-30.9-18.6-45.9-8.2l-107.7 75.5c-44.7 31.2-106.3 20.4-137.4-24.2-31.3-44.7-20.4-106.3 24.2-137.4l33.9-23.7c-28.1-47.7-91.6-27.6-120.4 23.6-30.2 53.5-29.1 121.8 8.4 175.3 52 74.2 154.7 92.4 229 40.4z" fill="#005AE1"/>
</svg>
