<svg width="27" height="28" viewBox="0 0 27 28" fill="none" xmlns="http://www.w3.org/2000/svg">
<g clip-path="url(#clip0_7_1200)">
<path d="M11.6475 5.1515L3.5299 13.2154C2.04419 14.6912 2.04419 17.0841 3.5299 18.56L11.6475 26.6238C13.1332 28.0997 15.542 28.0997 17.0277 26.6238L25.1453 18.56C26.6309 17.0841 26.6309 14.6912 25.1453 13.2154L17.0277 5.1515C15.542 3.6756 13.1332 3.6756 11.6475 5.1515Z" fill="#C6E1FF"/>
<path d="M11.5845 15.0052C8.24984 11.5251 8.37594 6.00824 11.8661 2.68311C15.3562 -0.642015 20.8888 -0.516297 24.2234 2.96391C27.5579 6.44411 27.432 11.9609 23.9418 15.2861C20.4517 18.6111 14.9191 18.4854 11.5845 15.0052ZM14.1698 12.5422C16.1402 14.5986 19.4093 14.6729 21.4717 12.7081C23.534 10.7433 23.6087 7.48328 21.6383 5.42682C19.6678 3.37034 16.3985 3.29624 14.3362 5.26109C12.2739 7.22591 12.1994 10.4857 14.1698 12.5422ZM0.355709 22.3438C0.299237 22.2849 0.268345 22.2058 0.270057 22.1242C0.271785 22.0425 0.305857 21.9649 0.364738 21.9084L5.90974 16.5859C6.1732 16.333 6.48384 16.1345 6.82392 16.0018C7.16398 15.8691 7.52681 15.8046 7.89172 15.8122C8.25667 15.8198 8.61671 15.8993 8.95095 16.0461C9.28514 16.1929 9.58715 16.4042 9.83976 16.6678L10.896 17.7701C10.9524 17.8291 10.9832 17.908 10.9815 17.9897C10.9798 18.0713 10.9458 18.1491 10.887 18.2056L6.44556 22.4688C5.62104 23.2601 4.51616 23.6912 3.37412 23.6674C2.23208 23.6435 1.14637 23.1667 0.35576 22.3416L0.355709 22.3438Z" fill="#005AE1"/>
</g>
<defs>
<clipPath id="clip0_7_1200">
<rect width="27" height="28" fill="white"/>
</clipPath>
</defs>
</svg>
